<?xml version="1.0" encoding="utf-8"?><!-- Uploaded to: SVG Repo, www.svgrepo.com, Generator: SVG Repo Mixer Tools -->
<svg fill="#000000" width="800px" height="800px" viewBox="0 0 700 800" xmlns="http://www.w3.org/2000/svg">
<path d="m 646 606 Q 642 602 621 592 q -32 -17 -49 -31 q -5 -4 -6 -8 t -1 -10 v -3 q 0 -7 -10 -7 h -24 q -3 0 -4.5 -3 t 0 -4 t 5.5 -3 l 1 -1 q 9 -4 16 -10 t 7 -9 q 0 -1 -3 -4 l -3 -2 q -9 -8 -15 -18 q -1 -3 -1.5 -14.5 t 1.5 -19 t 11 -22.5 q 5 -8 6 -50 v -4 q 0 -5 2.5 -8.5 t 7 -3.5 t 6.5 5 l 1 4 l 3 45 q 0 6 1 12 q 1 2 12 9 q 22 12 43 26 q 3 2 5.5 1 t 0.5 -3 q -15 -24 -17 -36 q -1 -10 1 -47 l 2 -36 q 2 -48 -12 -93 q -15 -50 -48 -94 q -31 -40 -84 -68 q -48 -26 -97 -31 q -19 -2 -50 -4 q -35 -2 -56 -6 q -14 -2 -31 -11 l -7 -4 q -3 -2 -5 -1 t -1 4 l 3 8 q 15 39 16 54 q 0 3 3 4.5 t 8.5 0.5 t 16.5 0 t 15 2 t 7 7 t 0 6 l -2 1 q -23 2 -37 8 q -17 7 -37 21 q -27 19 -46 42 q -11 14 -20 36 q -6 13 -14 40 q -10 33 -17 43.5 T 99 333 l -3 4 q -2 3 -2 4.5 t 3 1.5 h 8 q 140 1 143 0.5 t 3 -7.5 t 4 -9 q 49 -28 80 -47 q 11 -7 16.5 -8.5 T 364 270 q 23 0 40 11 q 11 7 15.5 17 t 3.5 20 q 0 5 -1.5 5 t -3.5 -7 q -2 -11 -12 -19 q -7 -6 -15 -9 q -11 -6 -29 -5 q -7 1 -25 13 q -53 35 -60.5 40 t -8.5 14 q -1 4 -2 6 q -2 6 -6.5 9 t -9.5 3 H 101 q -3 0 -3.5 2.5 t -0.5 8.5 v 9 q -1 10 -4 19 q -2 6 -8 18 l -10 20 q -7 16 -18 29 q -5 7 -5 9.5 t 8 7.5 l 9 7 q 4 3 13 12 q 16 16 26 23.5 t 29.5 19.5 t 24 16.5 t 5.5 9.5 l 1 4 q 1 4 6 1 q 9 -6 38 -28 q 4 -3 5.5 -1.5 T 216 560 l -4 4 q -21 21 -25 26 t -1 15 q 9 17 21.5 34.5 T 228 663 q 6 4 14 3 l 53 -27 q 54 -28 57 -30 t 5.5 -1.5 t 0.5 2.5 t -66 44 q -60 39 -61.5 40.5 T 229 704 q 0 18 -5 29 t -18 24 q -10 9 -14 11 t -3 5 v 1 q 1 3 32 -1 q 23 -2 49.5 -6.5 T 327 751 q 42 -15 63 -34 q 35 -32 70 -58 q 49 -39 71 -46 q 29 -9 61 -8 q 25 1 49 9 q 4 1 6 -1.5 t -1 -6.5 z m -445 -65 l -9 7 q -4 3 -10 -1 l -38 -26 l -42 -28 q -2 -1 -1.5 -2.5 t 3.5 -2.5 l 18 -3 q 6 -1 11 2 l 66 48 q 5 4 1 6 h 1 z m 30 -21 l -7 5 q -5 3 -8 1 l -28 -24 l -31 -22 q -2 -1 -1 -1 l 2 -1 l 14 -3 q 5 -1 9 3 l 48 37 q 3 2 3 2.5 t -2 2.5 h 1 z m 30 -22 l -6 5 q -4 2 -8 -1 l -42 -31 q -5 -4 1 -5 l 9 -2 q 6 -1 10 2 l 34 26 q 5 4 2 6 z m 27 -21 l -5 4 q -5 4 -8 1 l -27 -20 q -2 -2 -1.5 -3.5 t 2.5 -1.5 l 12 -3 q 5 -1 10 4 l 16 12 q 5 4 1 7 z m -24 248 q -9 0 -9 -12 q 0 -4 3 -7.5 t 7.5 -3.5 t 6 3 t 1.5 8 v 1 q 1 5 -2 8 t -7 3 z m 95 -59 q -5 1 -7 5 t 0 7.5 t 1 5 t -3 -0.5 q -5 -3 -5.5 -7.5 t 0 -8.5 t 4 -6.5 t 7.5 -3.5 q 8 0 8 3.5 t -0.5 4.5 t -2.5 1 h -2 z m 26 -324 q -6 -9 -15 -12 t -17 2.5 t -9 15.5 t 7 20 q 3 2 -4 1 t -10 -5 q -7 -7 -6 -20.5 t 11 -21 t 21.5 -6.5 t 19.5 11 q 3 4 4 8.5 t 0.5 6.5 t -2.5 0 z m 69 272 q -4 1 -6 6 q -1 1 0 6 v 4 q 0 3 -1.5 4 t -3.5 0 q -6 -4 -4 -13.5 t 11 -10.5 q 3 0 5.5 1.5 T 454 614 z"/>
</svg>